<?xml version="1.0" standalone="no"?><!DOCTYPE svg PUBLIC "-//W3C//DTD SVG 1.1//EN" "http://www.w3.org/Graphics/SVG/1.1/DTD/svg11.dtd"><svg t="1550637785773" class="icon" style="" viewBox="0 0 1024 1024" version="1.1" xmlns="http://www.w3.org/2000/svg" p-id="4676" xmlns:xlink="http://www.w3.org/1999/xlink" width="200" height="200"><defs><style type="text/css"></style></defs><path d="M511.2832 140.4928a371.4048 371.4048 0 0 0-331.6736 537.1904 1.7408 1.7408 0 0 1 0 1.3312l-33.792 96.3584a53.4528 53.4528 0 0 0 60.2112 70.2464l106.0864-20.48a1.536 1.536 0 0 1 1.2288 0 369.3568 369.3568 0 0 0 198.656 58.368c11.0592 0 22.6304-0.512 34.304-1.536A370.688 370.688 0 0 0 881.664 549.376v-1.3312a237.2608 237.2608 0 0 1-198.144-365.568 371.712 371.712 0 0 0-167.3216-42.0864z m-149.6064 466.944a22.016 22.016 0 0 1-22.1184-21.4016 20.48 20.48 0 0 1 20.48-21.4016h1.3312a21.4016 21.4016 0 0 1 0 42.9056zM655.36 425.6768h2.2528a21.4016 21.4016 0 0 1 0 42.9056H655.36a21.4016 21.4016 0 0 1 0-42.9056z m-48.2304-76.3904a21.504 21.504 0 0 1 17.408 24.8832l-12.4928 68.1984a20.48 20.48 0 0 1-2.8672 16.1792l-18.7392 105.984h66.6624a21.4016 21.4016 0 0 1 0 42.9056h-74.24l-10.24 58.9824a21.4016 21.4016 0 0 1-42.1888-7.4752l9.1136-51.2h-93.4912l-10.24 58.9824a21.4016 21.4016 0 0 1-42.1888-7.4752l33.5872-190.464h-66.8672a21.4016 21.4016 0 0 1 0-42.9056h74.24l10.24-58.9824a21.4016 21.4016 0 0 1 42.1888 7.4752l-9.1136 51.2h93.4912l10.24-58.9824a21.504 21.504 0 0 1 24.9856-17.3056z" fill="#1082FF" p-id="4677"></path><path d="M453.632 564.5312h93.2864l16.896-96.0512h-93.184l-16.9984 96.0512zM881.7664 548.1472a371.0976 371.0976 0 0 0-198.144-365.568 237.2608 237.2608 0 0 0 198.144 365.568z" fill="#1082FF" p-id="4678"></path><path d="M881.7664 548.1472a371.0976 371.0976 0 0 0-198.144-365.568 237.2608 237.2608 0 0 0 198.144 365.568z" fill="#459CFC" p-id="4679"></path><path d="M655.36 468.48h2.2528a21.4016 21.4016 0 0 0 0-42.9056H655.36a21.4016 21.4016 0 0 0 0 42.9056zM563.8144 468.48l7.5776-42.9056h-93.184l-7.5776 42.9056h93.184zM360.3456 425.6768a21.4016 21.4016 0 0 0 0 42.9056h66.6624l7.5776-42.9056zM612.5568 447.0784a21.4016 21.4016 0 0 0-0.512-4.7104l-2.8672 16.1792a21.2992 21.2992 0 0 0 3.3792-11.4688zM453.632 564.5312l-7.5776 42.9056h93.2864l7.5776-42.9056H453.632zM657.1008 607.4368a21.4016 21.4016 0 0 0 0-42.9056h-66.6624l-7.5776 42.9056zM361.6768 564.5312h-1.3312a20.48 20.48 0 0 0-20.48 21.4016 22.016 22.016 0 0 0 22.1184 21.4016 21.4016 21.4016 0 0 0 0-42.9056zM530.2272 658.944a21.4016 21.4016 0 0 0 42.1888 7.4752l10.24-58.9824h-43.3152z" fill="#FFFFFF" p-id="4680"></path><path d="M591.1552 468.48h-27.3408l-16.9984 96.0512h43.52l18.7392-105.984a21.4016 21.4016 0 0 1-17.92 9.9328zM591.1552 425.6768a21.4016 21.4016 0 0 1 20.48 16.7936l12.0832-68.3008a21.4016 21.4016 0 0 0-42.1888-7.4752l-10.24 58.9824z" fill="#FFFFFF" p-id="4681"></path><path d="M591.1552 425.6768H571.392l-7.5776 42.9056h27.2384a21.4016 21.4016 0 0 0 18.0224-10.24l2.8672-16.1792a21.4016 21.4016 0 0 0-20.7872-16.4864zM539.3408 607.4368h43.52l7.5776-42.9056h-43.52l-7.5776 42.9056zM408.7808 585.9328A21.4016 21.4016 0 0 1 430.08 564.5312h23.552l17.408-96.0512h-44.032l-33.5872 190.464a21.4016 21.4016 0 0 0 42.1888 7.4752l10.24-58.9824H430.08a21.4016 21.4016 0 0 1-21.2992-21.504zM487.2192 374.0672a21.4016 21.4016 0 0 0-42.1888-7.4752l-10.24 58.9824h43.4176zM478.208 425.5744h-43.6224l-7.5776 42.9056h43.6224l7.5776-42.9056z" fill="#FFFFFF" p-id="4682"></path><path d="M430.08 564.5312a21.4016 21.4016 0 0 0 0 42.9056h15.872l7.5776-42.9056z" fill="#FFFFFF" p-id="4683"></path></svg>