<?xml version="1.0" standalone="no"?><!DOCTYPE svg PUBLIC "-//W3C//DTD SVG 1.1//EN" "http://www.w3.org/Graphics/SVG/1.1/DTD/svg11.dtd"><svg t="1550639437516" class="icon" style="" viewBox="0 0 1024 1024" version="1.1" xmlns="http://www.w3.org/2000/svg" p-id="14476" xmlns:xlink="http://www.w3.org/1999/xlink" width="200" height="200"><defs><style type="text/css"></style></defs><path d="M483.252878 1.54591a13.802771 13.802771 0 0 0-19.572329 16.025018C480.575141 78.482558 485.571744 225.86855 252.2635 425.125357 40.88786 605.610395 82.87589 933.067342 362.837501 979.748315c-64.679786-137.696447-21.835984-273.294872-21.835984-273.294872s40.731978 315.379522 277.242465 306.90462c131.126328-12.063622 191.485847-82.209306 229.126004-151.678654 119.670027-221.03758 28.019626-481.937564-46.929422-569.005446a13.802771 13.802771 0 0 0-24.292878 9.123632c0.552111 43.837602-8.681943 121.381571-72.892435 172.3276-20.234863 16.052623-49.482935-2.111824-44.168869-27.384698C682.012786 338.568178 699.569911 112.092306 483.252878 1.54591z" fill="#2674FD" p-id="14477"></path><path d="M488.014835 430.052947a13.802771 13.802771 0 0 0-20.704157 13.678546c5.590122 41.021836-5.797164 122.554807-135.363779 225.399256-128.545209 102.030086-110.698226 296.110854 53.513344 329.623982-35.197067-82.637192-7.108427-161.740875-7.108427-161.740874s17.363886 186.986143 157.103144 186.986143c77.612983-4.347873 114.728635-44.458726 138.400388-84.652397 80.38734-136.426592-11.828975-406.422602-185.840513-509.294656z" fill="#FFE41F" p-id="14478"></path></svg>