<?xml version="1.0" standalone="no"?><!DOCTYPE svg PUBLIC "-//W3C//DTD SVG 1.1//EN" "http://www.w3.org/Graphics/SVG/1.1/DTD/svg11.dtd"><svg t="1551332735486" class="icon" style="" viewBox="0 0 1024 1024" version="1.1" xmlns="http://www.w3.org/2000/svg" p-id="3350" xmlns:xlink="http://www.w3.org/1999/xlink" width="200" height="200"><defs><style type="text/css"></style></defs><path d="M772.096 411.648v4.096c0 4.096-2.048 6.144-4.096 10.24L716.8 483.328l8.192 77.824v2.048c0 10.24-8.192 20.48-18.432 20.48-4.096 0-6.144 0-10.24-2.048l-71.68-30.72-71.68 28.672c-2.048 2.048-6.144 2.048-8.192 2.048-8.192 0-16.384-4.096-18.432-12.288-2.048-4.096-2.048-6.144-2.048-10.24l8.192-77.824-51.2-57.344c-4.096-4.096-4.096-8.192-4.096-14.336 0-6.144 2.048-10.24 6.144-16.384 2.048-2.048 6.144-4.096 10.24-4.096l75.776-16.384 38.912-67.584c4.096-6.144 10.24-10.24 18.432-10.24 4.096 0 6.144 0 10.24 2.048 2.048 2.048 6.144 4.096 8.192 8.192l38.912 67.584 75.776 16.384c6.144 4.096 12.288 12.288 12.288 22.528zM778.24 194.56h6.144c0 10.24-4.096 20.48-12.288 28.672-8.192 8.192-18.432 12.288-28.672 12.288h-245.76c-22.528 0-40.96-18.432-40.96-40.96h6.144c-2.048-2.048-2.048-6.144-4.096-10.24 0-2.048-2.048-6.144-2.048-10.24 0-10.24 4.096-20.48 12.288-28.672s18.432-12.288 28.672-12.288h245.76c22.528 0 40.96 18.432 40.96 40.96l-2.048 10.24-4.096 10.24z" fill="#D8D8D8" p-id="3351"></path><path d="M907.264 194.56v532.48H651.264c-2.048-4.096-2.048-8.192-4.096-10.24-2.048-4.096-4.096-6.144-6.144-10.24h247.808v-512h18.432z" fill="#D8D8D8" p-id="3352"></path><path d="M927.744 153.6h-104.448c-8.192-34.816-40.96-61.44-79.872-61.44h-245.76c-38.912 0-69.632 26.624-79.872 61.44h-124.928c-10.24 0-20.48 10.24-20.48 20.48V634.88h-2.048c-34.816 4.096-67.584 16.384-98.304 34.816L94.208 716.8c-18.432 10.24-24.576 32.768-14.336 53.248L163.84 911.36c6.144 12.288 20.48 20.48 34.816 20.48h104.448c40.96 0 81.92-12.288 118.784-32.768l210.944-126.976c2.048-2.048 4.096-2.048 4.096-4.096h290.816c10.24 0 20.48-10.24 20.48-20.48v-573.44c0-10.24-8.192-20.48-20.48-20.48z m-368.64 614.4l-157.696 94.208c-28.672 18.432-63.488 26.624-96.256 26.624H200.704l-81.92-137.216 77.824-47.104c24.576-14.336 51.2-24.576 79.872-28.672h4.096l36.864-6.144 63.488-10.24c20.48-2.048 40.96 8.192 49.152 26.624l-53.248 18.432-59.392 20.48-30.72 10.24c-4.096 2.048-8.192 4.096-10.24 6.144-4.096 6.144-6.144 12.288-4.096 18.432 4.096 8.192 10.24 14.336 20.48 14.336 2.048 0 4.096 0 6.144-2.048l24.576-8.192 118.784-40.96 20.48-6.144c2.048 0 4.096-2.048 6.144-2.048l47.104-10.24 16.384-4.096c14.336-4.096 30.72-2.048 45.056 4.096 10.24 4.096 20.48 12.288 28.672 20.48 2.048 2.048 4.096 6.144 6.144 10.24l-53.248 32.768z m348.16-40.96H651.264c-2.048-4.096-2.048-8.192-4.096-10.24-2.048-4.096-4.096-6.144-6.144-10.24-26.624-36.864-71.68-53.248-116.736-43.008l-57.344 12.288c-16.384-36.864-53.248-59.392-94.208-53.248l-57.344 8.192V194.56h122.88c10.24 0 20.48-10.24 20.48-20.48s4.096-20.48 12.288-28.672 18.432-12.288 28.672-12.288h245.76c22.528 0 40.96 18.432 40.96 40.96 0 10.24 8.192 20.48 20.48 20.48h102.4l-2.048 532.48z" fill="#1C2754" p-id="3353"></path><path d="M772.096 411.648v4.096c0 4.096-2.048 6.144-4.096 10.24L716.8 483.328l8.192 77.824v2.048c0 10.24-8.192 20.48-18.432 20.48-4.096 0-6.144 0-10.24-2.048l-71.68-30.72-71.68 28.672c-2.048 2.048-6.144 2.048-8.192 2.048-8.192 0-16.384-4.096-18.432-12.288-2.048-4.096-2.048-6.144-2.048-10.24l8.192-77.824-51.2-57.344c-4.096-4.096-4.096-8.192-4.096-14.336 0-6.144 2.048-10.24 6.144-16.384 2.048-2.048 6.144-4.096 10.24-4.096l75.776-16.384 38.912-67.584c4.096-6.144 10.24-10.24 18.432-10.24 4.096 0 6.144 0 10.24 2.048 2.048 2.048 6.144 4.096 8.192 8.192l38.912 67.584 75.776 16.384c6.144 4.096 12.288 12.288 12.288 22.528zM784.384 194.56c0 10.24-4.096 20.48-12.288 28.672-8.192 8.192-18.432 12.288-28.672 12.288h-245.76c-22.528 0-40.96-18.432-40.96-40.96h327.68z" fill="#2882D7" p-id="3354"></path><path d="M911.36 194.56v534.528H651.264c-2.048-4.096-10.24-16.384-12.288-20.48l253.952 2.048-4.096-516.096h22.528z" fill="#2882D7" p-id="3355"></path><path d="M786.432 172.032v22.528c0 10.24-4.096 20.48-12.288 28.672-8.192 8.192-20.48 10.24-30.72 10.24h-245.76c-22.528 0-40.96-18.432-40.96-40.96 0-4.096 0-6.144 2.048-10.24 0-2.048-2.048-6.144-2.048-10.24 0 10.24-10.24 20.48-20.48 20.48h-122.88v440.32l57.344-8.192c40.96-6.144 79.872 18.432 94.208 53.248l57.344-12.288c45.056-10.24 90.112 8.192 116.736 43.008l253.952 2.048-4.096-516.096-83.968-2.048s-18.432-10.24-18.432-20.48z m-14.336 243.712c0 4.096-2.048 6.144-4.096 10.24L716.8 483.328l8.192 77.824v2.048c0 10.24-8.192 20.48-18.432 20.48-4.096 0-6.144 0-10.24-2.048l-71.68-30.72-71.68 28.672c-2.048 2.048-6.144 2.048-8.192 2.048-8.192 0-16.384-4.096-18.432-12.288-2.048-4.096-2.048-6.144-2.048-10.24l8.192-77.824-51.2-57.344c-4.096-4.096-4.096-8.192-4.096-14.336 0-6.144 2.048-10.24 6.144-16.384 2.048-2.048 6.144-4.096 10.24-4.096l75.776-16.384 38.912-67.584c4.096-6.144 10.24-10.24 18.432-10.24 4.096 0 6.144 0 10.24 2.048 2.048 2.048 6.144 4.096 8.192 8.192l38.912 67.584 75.776 16.384c10.24 2.048 12.288 24.576 12.288 26.624z" fill="#4DA9FF" p-id="3356"></path><path d="M772.096 411.648v4.096c0 4.096-2.048 6.144-4.096 10.24L716.8 483.328l8.192 77.824v2.048c0 10.24-8.192 20.48-18.432 20.48-4.096 0-6.144 0-10.24-2.048l-71.68-30.72-71.68 28.672c-2.048 2.048-6.144 2.048-8.192 2.048-8.192 0-16.384-4.096-18.432-12.288-2.048-4.096-2.048-6.144-2.048-10.24l8.192-77.824-51.2-57.344c-4.096-4.096-4.096-8.192-4.096-14.336 0-6.144 2.048-10.24 6.144-16.384 2.048-2.048 6.144-4.096 10.24-4.096l75.776-16.384 38.912-67.584c4.096-6.144 10.24-10.24 18.432-10.24 4.096 0 6.144 0 10.24 2.048 2.048 2.048 6.144 4.096 8.192 8.192l38.912 67.584 75.776 16.384c6.144 4.096 12.288 12.288 12.288 22.528zM784.384 194.56c0 10.24-4.096 20.48-12.288 28.672-8.192 8.192-18.432 12.288-28.672 12.288h-245.76c-22.528 0-40.96-18.432-40.96-40.96h327.68z" fill="#4DA9FF" p-id="3357"></path><path d="M786.432 200.704c0 10.24-10.24 36.864-43.008 34.816h-245.76c-22.528 0-40.96-18.432-40.96-40.96 0-4.096 0-6.144 2.048-10.24 2.048-6.144 6.144-14.336 10.24-18.432 8.192-8.192 18.432-12.288 28.672-12.288h245.76c18.432 0 40.96 2.048 45.056 20.48 0 0-2.048 24.576-2.048 26.624z" fill="#2882D7" p-id="3358"></path><path d="M786.432 174.08s-8.192 40.96-43.008 43.008h-245.76c-14.336 0-28.672-8.192-34.816-20.48-2.048-2.048-2.048-6.144-4.096-10.24 0-2.048-2.048-6.144-2.048-10.24 0-10.24 4.096-20.48 12.288-28.672s18.432-12.288 28.672-12.288h245.76c22.528-2.048 43.008 16.384 43.008 38.912z" fill="#DBECFF" p-id="3359"></path><path d="M614.4 735.232l-212.992 129.024c-28.672 18.432-65.536 24.576-98.304 24.576H198.656l-81.92-137.216 77.824-47.104c40.96-26.624 108.544-36.864 108.544-36.864l77.824-8.192c22.528-2.048 43.008 10.24 51.2 28.672L286.72 737.28c-4.096 2.048-14.336 10.24-12.288 22.528 6.144 14.336 18.432 14.336 22.528 12.288l24.576-8.192 118.784-40.96 88.064-26.624c14.336-4.096 36.864-2.048 51.2 4.096 12.288 6.144 34.816 30.72 34.816 34.816z" fill="#FFD2BF" p-id="3360"></path><path d="M772.096 411.648v4.096c0 4.096-2.048 6.144-4.096 10.24L716.8 483.328l8.192 77.824v2.048c0 10.24-8.192 20.48-18.432 20.48-4.096 0-6.144 0-10.24-2.048l-71.68-30.72-71.68 28.672c-2.048 2.048-6.144 2.048-8.192 2.048-8.192 0-16.384-4.096-18.432-12.288-2.048-4.096-2.048-6.144-2.048-10.24l8.192-77.824-51.2-57.344c-4.096-4.096-4.096-8.192-4.096-14.336 0-6.144 2.048-10.24 6.144-16.384 2.048-2.048 6.144-4.096 10.24-4.096l75.776-16.384 38.912-67.584c4.096-6.144 10.24-10.24 18.432-10.24 4.096 0 6.144 0 10.24 2.048 2.048 2.048 6.144 4.096 8.192 8.192l38.912 67.584 75.776 16.384c6.144 4.096 12.288 12.288 12.288 22.528z" fill="#FFF043" p-id="3361"></path></svg>