<?xml version="1.0" standalone="no"?><!DOCTYPE svg PUBLIC "-//W3C//DTD SVG 1.1//EN" "http://www.w3.org/Graphics/SVG/1.1/DTD/svg11.dtd"><svg t="1551332720129" class="icon" style="" viewBox="0 0 1024 1024" version="1.1" xmlns="http://www.w3.org/2000/svg" p-id="3230" xmlns:xlink="http://www.w3.org/1999/xlink" width="200" height="200"><defs><style type="text/css"></style></defs><path d="M512 512m-430.08 0a430.08 430.08 0 1 0 860.16 0 430.08 430.08 0 1 0-860.16 0Z" fill="#FFCC7C" p-id="3231"></path><path d="M512 983.04C251.904 983.04 40.96 772.096 40.96 512S251.904 40.96 512 40.96s471.04 210.944 471.04 471.04-210.944 471.04-471.04 471.04z m0-901.12C274.432 81.92 81.92 274.432 81.92 512s192.512 430.08 430.08 430.08 430.08-192.512 430.08-430.08S749.568 81.92 512 81.92z" fill="#401F11" p-id="3232"></path><path d="M667.648 456.704c30.72-18.432 49.152-51.2 49.152-88.064 0-57.344-45.056-102.4-102.4-102.4s-102.4 45.056-102.4 102.4c0 34.816 18.432 69.632 49.152 88.064-75.776 14.336-131.072 63.488-131.072 118.784 0 67.584 81.92 59.392 184.32 59.392s184.32 10.24 184.32-59.392c0-55.296-55.296-104.448-131.072-118.784z" fill="#FF6747" p-id="3233"></path><path d="M550.912 563.2c26.624-22.528 43.008-57.344 43.008-92.16 0-67.584-55.296-122.88-122.88-122.88s-122.88 55.296-122.88 122.88c0 36.864 16.384 69.632 43.008 92.16-73.728 20.48-124.928 71.68-124.928 129.024 0 75.776 92.16 65.536 204.8 65.536s204.8 10.24 204.8-65.536c0-57.344-51.2-106.496-124.928-129.024z" fill="#401F11" p-id="3234"></path><path d="M370.688 94.208l165.888-22.528 10.24 63.488c2.048 10.24-6.144 22.528-16.384 24.576-4.096 0-8.192 0-12.288-2.048l-147.456-63.488zM260.096 866.304l-122.88-114.688 43.008-49.152c8.192-8.192 20.48-10.24 28.672-2.048 2.048 2.048 4.096 6.144 6.144 10.24l45.056 155.648zM937.984 608.256l-65.536 155.648-59.392-24.576c-10.24-4.096-16.384-16.384-12.288-26.624 2.048-4.096 4.096-6.144 6.144-8.192l131.072-96.256z" fill="#401F11" p-id="3235"></path></svg>