<?xml version="1.0" standalone="no"?><!DOCTYPE svg PUBLIC "-//W3C//DTD SVG 1.1//EN" "http://www.w3.org/Graphics/SVG/1.1/DTD/svg11.dtd"><svg t="1551332700631" class="icon" style="" viewBox="0 0 1024 1024" version="1.1" xmlns="http://www.w3.org/2000/svg" p-id="2972" xmlns:xlink="http://www.w3.org/1999/xlink" width="200" height="200"><defs><style type="text/css"></style></defs><path d="M622.592 657.408c12.288-12.288 30.72-12.288 43.008 0l180.224 180.224c12.288 12.288 12.288 30.72 0 43.008-12.288 12.288-30.72 12.288-43.008 0l-180.224-180.224c-12.288-12.288-12.288-30.72 0-43.008zM505.856 684.032l-14.336-14.336c-8.192-8.192-20.48-8.192-28.672 0L266.24 866.304c-8.192 8.192-8.192 20.48 0 28.672l14.336 14.336c8.192 8.192 20.48 8.192 28.672 0l194.56-194.56c10.24-8.192 10.24-22.528 2.048-30.72z" fill="#1C2754" p-id="2973"></path><path d="M210.944 204.8h655.36v450.56h-655.36z" fill="#FFCC7C" p-id="2974"></path><path d="M886.784 696.32h-696.32c-12.288 0-20.48-8.192-20.48-20.48V184.32c0-12.288 8.192-20.48 20.48-20.48h696.32c12.288 0 20.48 8.192 20.48 20.48v491.52c0 12.288-8.192 20.48-20.48 20.48z m-675.84-40.96h655.36V204.8h-655.36v450.56z" fill="#1C2754" p-id="2975"></path><path d="M548.864 522.24h73.728v-36.864h-73.728c-20.48 0-28.672-12.288-28.672-24.576s10.24-20.48 28.672-20.48h53.248l-40.96-65.536c-12.288-28.672 28.672-49.152 45.056-28.672 14.336 24.576 47.104 73.728 47.104 73.728s32.768-53.248 51.2-81.92c14.336-24.576 59.392 4.096 45.056 32.768-14.336 22.528-45.056 67.584-45.056 67.584H757.76c20.48 0 28.672 6.144 28.672 20.48s-10.24 24.576-28.672 24.576h-73.728v36.864H757.76c20.48 0 28.672 6.144 28.672 20.48 0 12.288-10.24 22.528-28.672 22.528h-73.728v4.096c0 30.72-10.24 45.056-28.672 45.056s-28.672-14.336-28.672-45.056v-4.096H552.96c-20.48 0-28.672-10.24-28.672-22.528-8.192-12.288 2.048-18.432 24.576-18.432zM169.984 163.84h737.28c22.528 0 40.96 18.432 40.96 40.96s-18.432 40.96-40.96 40.96h-737.28c-22.528 0-40.96-18.432-40.96-40.96s18.432-40.96 40.96-40.96z" fill="#1C2754" p-id="2976"></path><path d="M548.864 102.4c16.384 0 30.72 14.336 30.72 30.72v40.96c0 16.384-14.336 30.72-30.72 30.72s-30.72-14.336-30.72-30.72v-40.96c0-16.384 14.336-30.72 30.72-30.72z" fill="#1C2754" p-id="2977"></path><path d="M77.824 772.096l83.968 139.264c2.048 6.144 10.24 10.24 16.384 10.24h106.496c36.864 0 75.776-10.24 106.496-30.72l210.944-126.976c10.24-6.144 12.288-18.432 6.144-26.624-20.48-34.816-61.44-53.248-102.4-43.008l-75.776 16.384c-6.144-36.864-38.912-63.488-77.824-57.344l-102.4 14.336c-30.72 4.096-61.44 14.336-90.112 30.72L81.92 745.472c-6.144 6.144-8.192 16.384-4.096 26.624z" fill="#FFD2BF" p-id="2978"></path><path d="M284.672 942.08H178.176c-14.336 0-26.624-8.192-34.816-20.48l-83.968-141.312c-10.24-18.432-2.048-40.96 14.336-53.248l77.824-47.104c30.72-18.432 63.488-28.672 98.304-34.816l102.4-14.336c40.96-6.144 79.872 18.432 94.208 53.248l55.296-12.288c49.152-10.24 98.304 10.24 122.88 53.248 12.288 18.432 6.144 43.008-14.336 55.296l-210.944 126.976c-32.768 22.528-73.728 34.816-114.688 34.816z m-188.416-178.176l81.92 137.216h104.448c34.816 0 67.584-10.24 96.256-26.624l210.944-126.976c-16.384-26.624-49.152-40.96-79.872-32.768L413.696 737.28l-4.096-22.528c-4.096-26.624-28.672-45.056-53.248-40.96l-102.4 14.336c-28.672 4.096-57.344 14.336-81.92 28.672l-75.776 47.104z" fill="#1C2754" p-id="2979"></path><path d="M268.288 788.48c-8.192 0-16.384-6.144-18.432-14.336-4.096-10.24 2.048-22.528 12.288-26.624l165.888-57.344c10.24-4.096 22.528 2.048 26.624 12.288 4.096 10.24-2.048 22.528-12.288 26.624l-165.888 57.344c-4.096 2.048-6.144 2.048-8.192 2.048z" fill="#1C2754" p-id="2980"></path><path d="M456.704 389.12c0-57.344-45.056-102.4-102.4-102.4s-102.4 45.056-102.4 102.4 45.056 102.4 102.4 102.4v-102.4h102.4z" fill="#FFFFFF" p-id="2981"></path><path d="M374.784 409.6v102.4c57.344 0 102.4-45.056 102.4-102.4h-102.4z" fill="#FF7D1B" p-id="2982"></path></svg>