<?xml version="1.0" standalone="no"?><!DOCTYPE svg PUBLIC "-//W3C//DTD SVG 1.1//EN" "http://www.w3.org/Graphics/SVG/1.1/DTD/svg11.dtd"><svg t="1551338251404" class="icon" style="" viewBox="0 0 1024 1024" version="1.1" xmlns="http://www.w3.org/2000/svg" p-id="3476" xmlns:xlink="http://www.w3.org/1999/xlink" width="200" height="200"><defs><style type="text/css"></style></defs><path d="M497.664 399.36v102.4H256c-34.816 0-61.44 26.624-61.44 61.44v61.44h-102.4c-22.528 0-40.96 18.432-40.96 40.96v245.76c0 22.528 18.432 40.96 40.96 40.96h245.76c22.528 0 40.96-18.432 40.96-40.96v-245.76c0-22.528-18.432-40.96-40.96-40.96h-102.4v-61.44c0-12.288 8.192-20.48 20.48-20.48h512c12.288 0 20.48 8.192 20.48 20.48v61.44h-102.4c-22.528 0-40.96 18.432-40.96 40.96v245.76c0 22.528 18.432 40.96 40.96 40.96h245.76c22.528 0 40.96-18.432 40.96-40.96v-245.76c0-22.528-18.432-40.96-40.96-40.96h-102.4v-61.44c0-34.816-26.624-61.44-61.44-61.44H538.624v-102.4h106.496c22.528 0 40.96-18.432 40.96-40.96v-245.76c0-22.528-18.432-40.96-40.96-40.96h-245.76c-22.528 0-40.96 18.432-40.96 40.96v245.76c0 22.528 18.432 40.96 40.96 40.96h98.304z" fill="#1C2754" p-id="3477"></path><path d="M399.36 112.64h245.76v245.76h-245.76z" fill="#FFC934" p-id="3478"></path><path d="M686.08 665.6h245.76v245.76h-245.76z" fill="#50BFFF" p-id="3479"></path><path d="M92.16 665.6h245.76v245.76h-245.76z" fill="#FF6464" p-id="3480"></path></svg>