<?xml version="1.0" standalone="no"?><!DOCTYPE svg PUBLIC "-//W3C//DTD SVG 1.1//EN" "http://www.w3.org/Graphics/SVG/1.1/DTD/svg11.dtd"><svg t="1552530569868" class="icon" style="" viewBox="0 0 1024 1024" version="1.1" xmlns="http://www.w3.org/2000/svg" p-id="16037" xmlns:xlink="http://www.w3.org/1999/xlink" width="200" height="200"><defs><style type="text/css"></style></defs><path d="M295.384615 866.461538h433.23077V492.307692c0-119.630769-96.984615-216.615385-216.615385-216.615384s-216.615385 96.984615-216.615385 216.615384v374.153846z" fill="#C1C1C1" p-id="16038"></path><path d="M807.384615 866.461538h98.461539a39.384615 39.384615 0 1 1 0 78.769231H118.153846a39.384615 39.384615 0 1 1 0-78.769231h98.461539V492.307692c0-163.131077 132.253538-295.384615 295.384615-295.384615s295.384615 132.253538 295.384615 295.384615v374.153846z m-78.76923 0V492.307692c0-119.630769-96.984615-216.615385-216.615385-216.615384s-216.615385 96.984615-216.615385 216.615384v374.153846h433.23077zM396.288 629.602462l78.828308-210.195693 73.747692 27.648-39.325538 104.881231 118.291692 1.161846-79.005539 209.132308-73.688615-27.844923 39.148308-103.640616-117.996308-1.142153zM433.230769 78.769231h157.538462v78.769231h-157.538462V78.769231z m329.412923 71.187692l111.399385 111.399385-55.689846 55.689846-111.399385-111.399385 55.689846-55.689846zM945.230769 433.230769v157.538462h-78.769231v-157.538462h78.769231zM78.769231 590.769231v-157.538462h78.769231v157.538462H78.769231z m71.187692-329.412923l111.399385-111.399385 55.689846 55.689846-111.399385 111.399385-55.689846-55.689846z" fill="#333333" p-id="16039"></path></svg>